<svg width="16" height="15" viewbox="0 0 16 15" fill="none" xmlns="http://www.w3.org/2000/svg">
<rect width="16" height="15" fill="#E5E5E5"/>
<rect width="1280" height="7473" transform="translate(-531 -88)" fill="#2A2C2F"/>
<g clip-path="url(#clip0_0_1)">
<path d="M4.58269 15.0001L5.42079 12.216H10.2219L11.06 15.0001H15.3213L10.5202 0.45459H5.12249L0.321289 15.0001H4.58269ZM6.31569 9.26139L7.76449 4.46029H7.87819L9.32699 9.26139H6.31569Z" fill="white"/>
<path d="M29.6188 5.90926C29.3063 2.30126 26.6643 0.255859 22.9995 0.255859C19.079 0.255859 15.9824 2.86946 15.9824 7.72746C15.9824 12.5641 18.9938 15.199 22.9995 15.199C27.2609 15.199 29.4199 12.2445 29.6188 9.77286L25.6131 9.74446C25.4143 10.9874 24.5336 11.7615 23.0847 11.7615C21.16 11.7615 20.0449 10.3979 20.0449 7.72746C20.0449 5.19896 21.1245 3.69336 23.1131 3.69336C24.633 3.69336 25.4995 4.58816 25.6131 5.90926H29.6188Z" fill="white"/>
</g>
<defs>
<clippath id="clip0_0_1">
<rect width="270" height="70" fill="white" transform="translate(-26 -54)"/>
</clippath>
</defs>
</svg>
