<svg width="15" height="16" viewbox="0 0 15 16" fill="none" xmlns="http://www.w3.org/2000/svg">
<rect width="15" height="16" fill="#E5E5E5"/>
<rect width="1280" height="7473" transform="translate(-546 -88)" fill="#2A2C2F"/>
<g clip-path="url(#clip0_0_1)">
<path d="M-10.4173 15.0001L-9.57921 12.216H-4.77811L-3.94001 15.0001H0.321291L-4.47981 0.45459H-9.87751L-14.6787 15.0001H-10.4173ZM-8.68431 9.26139L-7.23551 4.46029H-7.12181L-5.67301 9.26139H-8.68431Z" fill="white"/>
<path d="M14.6188 5.90926C14.3063 2.30126 11.6643 0.255859 7.99952 0.255859C4.07902 0.255859 0.982422 2.86946 0.982422 7.72746C0.982422 12.5641 3.99382 15.199 7.99952 15.199C12.2609 15.199 14.4199 12.2445 14.6188 9.77286L10.6131 9.74446C10.4143 10.9874 9.53362 11.7615 8.08472 11.7615C6.16002 11.7615 5.04492 10.3979 5.04492 7.72746C5.04492 5.19896 6.12452 3.69336 8.11312 3.69336C9.63302 3.69336 10.4995 4.58816 10.6131 5.90926H14.6188Z" fill="white"/>
</g>
<defs>
<clippath id="clip0_0_1">
<rect width="270" height="70" fill="white" transform="translate(-41 -54)"/>
</clippath>
</defs>
</svg>
