<svg width="16" height="15" viewbox="0 0 16 15" fill="none" xmlns="http://www.w3.org/2000/svg">
<rect width="16" height="15" fill="#E5E5E5"/>
<rect width="1280" height="7473" transform="translate(-759 -88)" fill="#2A2C2F"/>
<g clip-path="url(#clip0_0_1)">
<path d="M-11.4141 15.0001H-7.46506V10.1989H-6.10207L-3.54506 15.0001H0.744934L-2.21007 9.57389C-0.661068 8.82819 0.261932 7.41489 0.261932 5.39779C0.261932 2.30119 -1.90406 0.45459 -5.13606 0.45459H-11.4141V15.0001ZM-7.46506 7.13079V3.60799H-6.07306C-4.68806 3.60799 -3.85706 4.14779 -3.85706 5.39779C-3.85706 6.64069 -4.68806 7.13079 -6.07306 7.13079H-7.46506Z" fill="white"/>
<path d="M0.665039 0.45459L6.00606 10.4262V15.0001H9.92604V10.4262L15.267 0.45459H10.8641L8.02306 6.36369H7.90904L5.06905 0.45459H0.665039Z" fill="white"/>
</g>
<defs>
<clippath id="clip0_0_1">
<rect width="270" height="70" fill="white" transform="translate(-254 -54)"/>
</clippath>
</defs>
</svg>
