<svg width="14" height="16" viewBox="0 0 14 16" fill="none" xmlns="http://www.w3.org/2000/svg">
<rect width="14" height="16" fill="#E5E5E5"/>
<rect width="1280" height="7473" transform="translate(-681 -88)" fill="#2A2C2F"/>
<g clip-path="url(#clip0_0_1)">
<path d="M9.82137 5.25586H13.8124C13.5074 2.33676 10.8584 0.255859 7.42036 0.255859C3.50036 0.255859 0.318359 2.95466 0.318359 7.75586C0.318359 12.3581 3.20237 15.199 7.44937 15.199C11.2564 15.199 13.9834 12.8695 13.9834 8.89216V6.87516H7.53436V9.68766H10.1764C10.1414 10.9519 9.24637 11.7615 7.47737 11.7615C5.43237 11.7615 4.38136 10.2559 4.38136 7.69896C4.38136 5.17766 5.51736 3.69336 7.50636 3.69336C8.74136 3.69336 9.58037 4.26146 9.82137 5.25586Z" fill="white"/>
</g>
<defs>
<clipPath id="clip0_0_1">
<rect width="270" height="70" fill="white" transform="translate(-176 -54)"/>
</clipPath>
</defs>
</svg>
